<svg xmlns="http://www.w3.org/2000/svg" xmlns:xlink="http://www.w3.org/1999/xlink" version="1.1" id="Layer_1" x="0px" y="0px" width="100px"  height="100px" viewBox="5.0 -10.0 100.0 135.0" enable-background="new 0 0 100 100" xml:space="preserve">
<path fill="#ffffff" d="M98.981,29.374c0-1.023-0.832-1.856-1.855-1.856h-3.301c-1.022,0-1.855,0.833-1.855,1.856v18.545  c-0.152-0.054-0.313-0.087-0.479-0.1c0.072-0.199,0.118-0.41,0.118-0.633V44.56c0-1.023-0.833-1.855-1.855-1.855H77.327  c-0.478,0-0.908,0.186-1.238,0.483c-0.329-0.297-0.76-0.483-1.237-0.483H4.112c-1.023,0-1.856,0.832-1.856,1.855v2.627  c0,0.244,0.05,0.476,0.136,0.69c-0.789,0.214-1.374,0.929-1.374,1.785v4.688c0,0.478,0.186,0.908,0.482,1.238  c-0.297,0.328-0.482,0.759-0.482,1.236v3.72c0,0.916,0.669,1.675,1.543,1.823c-0.077,0.203-0.124,0.421-0.124,0.651l0.826,7.645  c0.02,1.007,0.844,1.819,1.855,1.819h2.475c1.024,0,1.856-0.833,1.855-1.822l0.414-7.642c0-0.219-0.045-0.424-0.114-0.619h80.485  c-0.073,0.204-0.12,0.422-0.12,0.652l0.412,7.575c0,1.022,0.833,1.855,1.856,1.855h2.476c1.01,0,1.836-0.813,1.855-1.819  l0.821-7.578l0.004-0.066c0-0.229-0.048-0.446-0.123-0.648c0.886-0.141,1.566-0.902,1.566-1.826v-3.72  c0-0.474-0.184-0.902-0.478-1.229c0.294-0.329,0.478-0.758,0.478-1.231V29.374z M76.708,44.56c0-0.341,0.277-0.618,0.619-0.618  h12.427c0.341,0,0.618,0.277,0.618,0.618v2.627c0,0.341-0.277,0.619-0.618,0.619H77.327c-0.342,0-0.619-0.278-0.619-0.619V44.56z   M3.493,44.56c0-0.341,0.278-0.618,0.619-0.618h70.74c0.342,0,0.619,0.277,0.619,0.618v2.627c0,0.341-0.277,0.619-0.619,0.619H4.112  c-0.341,0-0.619-0.278-0.619-0.619V44.56z M2.256,49.661c0-0.341,0.277-0.619,0.619-0.619h1.237h70.74h2.476h12.427h1.597  c0.341,0,0.619,0.278,0.619,0.619v4.688c0,0.341-0.278,0.619-0.619,0.619H2.875c-0.341,0-0.619-0.278-0.619-0.619V49.661z   M8.213,70.627c0,0.341-0.277,0.617-0.619,0.617H5.119c-0.341,0-0.619-0.276-0.619-0.617L3.676,62.99  c0.014-0.328,0.286-0.591,0.618-0.591h3.712c0.341,0,0.619,0.277,0.62,0.586L8.213,70.627z M95.479,70.56l-0.003,0.067  c0,0.341-0.277,0.617-0.618,0.617h-2.476c-0.341,0-0.618-0.276-0.619-0.651l-0.412-7.574c0-0.342,0.278-0.619,0.619-0.619h3.712  c0.332,0,0.604,0.263,0.618,0.591L95.479,70.56z M97.744,60.544c0,0.341-0.277,0.618-0.618,0.618h-1.444H91.97H8.006H4.294h-1.42  c-0.341,0-0.619-0.277-0.619-0.618v-3.72c0-0.341,0.277-0.618,0.619-0.618h88.476h2.344c0.044,0.003,0.086,0.013,0.131,0.013h3.301  c0.022,0,0.043-0.006,0.065-0.006c0.31,0.033,0.553,0.294,0.553,0.611V60.544z M97.744,54.363c0,0.318-0.243,0.579-0.553,0.612  c-0.022-0.001-0.043-0.007-0.065-0.007h-3.428c-0.279-0.059-0.491-0.308-0.491-0.605V54.35v-4.688V29.374  c0-0.341,0.277-0.619,0.618-0.619h3.301c0.341,0,0.618,0.277,0.618,0.619V54.363z"/>
</svg>