<svg xmlns="http://www.w3.org/2000/svg" xmlns:xlink="http://www.w3.org/1999/xlink" version="1.1" id="Layer_1" x="0px" y="0px" width="100px" height="100px" viewBox="5.0 -10.0 100.0 135.0" enable-background="new 0 0 100 100" xml:space="preserve">
<path stroke="#ffffff" fill="#ffffff" d="M78.011,44.241c-2.695-1.496-7.618-0.542-11.961,0.302c-1.216,0.236-2.364,0.459-3.366,0.608  c-0.601,0.087-0.995-0.077-1.288-0.537c-1.361-2.142,0.126-9.453,4.015-15.319c4.832-7.289,5.908-10.532,2.318-14.216  c-2.647-2.718-7.425-1.752-13.474-0.53c-1.974,0.399-4.015,0.812-6.18,1.142c-8.072,1.231-15.796-2.347-16.407-2.639  c-0.501-0.488-1.103-0.845-1.829-1.029c-1.352-0.344-2.573,0.059-3.542,1.161c-3.762,4.274-3.667,18.746-2.117,30.864  C26.491,62.123,37,72.825,51,73.747v7.542c-9-2.178-8.979-2.181-9.092-2.181c-0.552,0-0.889,0.447-0.889,1  c0,0.5,0.422,0.914,0.901,0.988c0.327,0.067,2.945,0.684,6.424,1.515c-4.217,1.196-8.074,2.297-9.599,2.73  c-0.531,0.151-0.833,0.704-0.682,1.235c0.125,0.439,0.529,0.727,0.965,0.727c0.09,0,0.184-0.012,0.275-0.038  c2.992-0.851,8.211-2.333,13.044-3.702c5.406,1.296,11.582,2.78,14.997,3.603c0.079,0.019,0.157,0.027,0.235,0.027  c0.451,0,0.861-0.308,0.972-0.766c0.129-0.537-0.202-1.077-0.738-1.207c-4.636-1.115-8.422-2.025-11.527-2.771  c3.912-1.105,6.938-1.955,7.241-2.026c0.534-0.113,0.88-0.637,0.772-1.174c-0.108-0.541-0.861-0.899-1.398-0.785  C62.641,78.516,58,79.751,53,81.175v-7.358c0,0,0.306,0.003,0.348,0.003c0.34,0,0.794-0.005,1.141-0.014  c18.852-0.507,23.048-13.153,23.088-13.28c0.021-0.066,0.053-0.133,0.055-0.199C78.318,58.859,83.541,47.313,78.011,44.241z   M48.3,17.174c2.202-0.335,4.261-0.751,6.252-1.154c5.599-1.132,10.024-2.027,12.102,0.106c2.622,2.69,2.613,4.637-2.494,12.34  c-4.026,6.074-5.91,13.996-4.031,16.953c0.61,0.959,1.593,1.389,2.774,1.216c1.035-0.153,2.2-0.379,3.433-0.619  c3.889-0.755,8.728-1.697,10.946-0.463c3.693,2.051,0.676,10.596-0.931,14.021c-3.305-0.362-16.875-0.709-23.343-0.858  c-1.313-1.568-2.476-3.407-3.696-5.346c-1.035-1.644-2.104-3.344-3.334-4.971c-1.961-2.595-3.866-3.856-5.821-3.856  c-2.372,0-4.127,1.888-5.41,3.267c-0.228,0.245-0.442,0.476-0.644,0.678c-0.355,0.355-0.705,0.527-1.069,0.527h0  c-0.841,0-1.686-0.913-1.891-1.187c-3.042-5.575-2.812-13.414-1.309-16.58c1.07-2.253,4.498-11.146,3.074-16.045  C35.901,16.345,41.918,18.146,48.3,17.174z M74.588,60.691C72.557,61.76,68.763,63,62.885,63h-0.136  c-3.662,0-6.214-1.139-8.298-3.09C61.369,60.077,70.612,60.465,74.588,60.691z M54.559,72.306c-0.332,0.009-0.662,0.014-0.988,0.014  c-20.916,0-26.321-17.831-27.681-28.46c-1.867-14.591-1.251-26.52,1.532-29.683c0.457-0.519,0.948-0.771,1.501-0.771  c0.173,0,0.357,0.024,0.546,0.073c0.81,0.205,1.386,0.695,1.764,1.497c1.772,3.77-1.398,12.774-2.754,15.628  c-1.606,3.381-2.051,11.716,1.395,18.019c0.138,0.193,1.402,1.891,3.16,1.891c0,0,0,0,0,0c0.771,0,1.488-0.325,2.13-0.967  c0.213-0.213,0.44-0.457,0.682-0.716c1.155-1.243,2.593-2.789,4.312-2.789c1.433,0,2.989,1.097,4.625,3.261  c1.191,1.576,2.244,3.271,3.261,4.888C51.534,59.738,54.83,65,62.749,65h0.148c5.973,0,9.915-1.455,12.167-2.602  C72.946,65.844,67.385,71.961,54.559,72.306z"/>
</svg>