<svg xmlns="http://www.w3.org/2000/svg" xmlns:xlink="http://www.w3.org/1999/xlink" version="1.1" id="Layer_1" x="0px" y="0px" viewBox="5.0 -10.0 100.0 135.0" enable-background="new 0 0 100 100" xml:space="preserve" height="100px" width="100px">
<path fill="#ffffff" d="M2.5,30.4v5.5h2v33.7h5.5V38h69.1v6.4v1.3v8.4v1.4v14.1h18.3V55.5v-1.4v-8.4v-1.3v-8.5v-1.3v-4.3H2.5z   M8.8,68.4h-3V35.9h3V38V68.4z M10.1,36.7v-0.8h69.1v0.8H10.1z M96.2,68.4H80.5V55.5h15.7V68.4z M96.2,54.1H80.5v-8.4h15.7V54.1z   M96.2,44.4H80.5v-8.5h15.7V44.4z M80,34.6h-0.8H10.1H8.8H4.5H3.8v-3h92.4v3H80z M92.4,40.2h-8.1v-0.6c0-0.8,0.7-1.5,1.5-1.5h5  c0.8,0,1.5,0.7,1.5,1.5V40.2z M92.4,50.1h-8.1v-0.6c0-0.8,0.7-1.5,1.5-1.5h5c0.8,0,1.5,0.7,1.5,1.5V50.1z M84.3,66.8v-0.6  c0-0.8,0.7-1.5,1.5-1.5h5c0.8,0,1.5,0.7,1.5,1.5v0.6H84.3z M92.4,60.1h-8.1v-0.6c0-0.8,0.7-1.5,1.5-1.5h5c0.8,0,1.5,0.7,1.5,1.5  V60.1z"/>
</svg>