<svg xmlns="http://www.w3.org/2000/svg" xmlns:xlink="http://www.w3.org/1999/xlink" version="1.1" id="Layer_1" x="0px" y="0px" width="100px" height="100px" viewBox="5.0 -10.0 100.0 135.0" enable-background="new 0 0 100 100" xml:space="preserve">
<g>
	<path fill="#ffffff" stroke="#ffffff" d="M13.783,4v88.087h7.807C22.053,94.318,24.032,96,26.398,96c2.367,0,4.348-1.682,4.811-3.913h37.338   C69.01,94.318,70.989,96,73.355,96c2.367,0,4.348-1.682,4.811-3.913h8.051V4H13.783z M26.398,94c-1.253,0-2.314-0.8-2.725-1.913   h5.45C28.714,93.2,27.652,94,26.398,94z M73.355,94c-1.253,0-2.314-0.8-2.725-1.913h5.45C75.671,93.2,74.609,94,73.355,94z    M84.217,90.087H15.783V60.783h68.434V90.087z M84.217,58.783H15.783V33.392h68.434V58.783z M84.217,31.392H15.783V6h68.434V31.392   z"/>
	<polygon fill="#ffffff" stroke="#ffffff" points="39.26,13.826 60.74,13.826 60.74,16.739 62.74,16.739 62.74,11.826 37.26,11.826 37.26,16.739 39.26,16.739  "/>
	<polygon fill="#ffffff" stroke="#ffffff" points="39.26,41.217 60.74,41.217 60.74,44.13 62.74,44.13 62.74,39.217 37.26,39.217 37.26,44.13 39.26,44.13  "/>
	<polygon fill="#ffffff" stroke="#ffffff" points="39.26,68.608 60.74,68.608 60.74,71.521 62.74,71.521 62.74,66.608 37.26,66.608 37.26,71.521 39.26,71.521  "/>
</g>
</svg>