<svg xmlns="http://www.w3.org/2000/svg" xmlns:xlink="http://www.w3.org/1999/xlink" version="1.1" id="Your_Icon" x="0px" y="0px" width="100px" height="100px" viewBox="5.0 -10.0 100.0 135.0" enable-background="new 0 0 100 100" xml:space="preserve">
<path fill="#ffffff" d="M84.471,52.938l-2.842-0.123L38.327,4.588l2.854-1.983l-3.887,0.254L31.521,0.39l-3.921,0.435l-3.523,2.213l7.712,3.465  l0.919-0.071l34.09,38.336L44.8,66.392c-0.081-0.033-0.181-0.054-0.293-0.054c-0.173,0-0.324,0.05-0.408,0.123h-3.679  c-0.06-0.055-0.158-0.094-0.275-0.113L64.785,42.51l-1.104-1.243L29.524,74.411c-3.366-0.709-4.395-1.015-4.395-1.015l-1.017,0.92  c1.961,5.762,4.394,7.822,5.194,8.149c0.799,0.327,6.137,1.294,6.137,1.294l0.872-0.943c-1.194-1.107-2.121-2.143-2.845-3.081  l4.345-4.294v13.253c-1.223,0.217-1.992,0.521-2.019,0.858h-0.002v9.006c0,0.673,2.951,1.217,6.59,1.217  c3.641,0,6.592-0.544,6.592-1.217v-9.006h-0.002c-0.025-0.323-0.734-0.615-1.873-0.83l-0.576-21.885h-0.001l21.237-20.983  l8.139,9.152l-0.121,0.137l1.219,1.442c0-0.002,0-0.002,0-0.002c-0.523,0.829-1.127,1.612-1.775,2.142l5.738,0.437  c0,0,1.396-1.494,2.504-3.621l0.256-0.397l-0.037-0.041c0.311-0.647,0.586-1.342,0.787-2.066V52.938z M40.011,66.838  c0.175,0,0.326-0.05,0.408-0.124h3.679c0.059,0.052,0.151,0.09,0.261,0.11l-4.85,4.767l-0.095-4.535l0.288-0.279  C39.786,66.814,39.894,66.838,40.011,66.838z M28.647,75.294c0.821,0.153,1.324,0.234,1.324,0.234  c0.058,0.175,0.117,0.345,0.177,0.515c-0.119-0.325-0.177-0.515-0.177-0.515C29.577,75.466,29.124,75.386,28.647,75.294z   M32.55,78.432c-0.977-1.521-1.367-2.669-1.518-3.266l6.784-6.564v4.654L32.55,78.432z M45.17,88.469  c-0.847-0.073-1.789-0.114-2.785-0.114c-1.45,0-2.79,0.087-3.878,0.233c0.77-0.11,1.354-0.141,1.354-0.141l-0.306-14.724  l5.129-5.067L45.17,88.469z M32.694,4.758l3.33,1.431l1.167-0.811L69.387,41.25c-0.146,0.029-0.266,0.088-0.324,0.164h-3.07  c-0.084-0.091-0.26-0.155-0.465-0.155c-0.102,0-0.195,0.016-0.275,0.043L34.202,6.317l1.677-0.128L32.694,4.758z M65.682,41.785  c0.137-0.023,0.248-0.074,0.311-0.141h3.07c0.086,0.108,0.289,0.184,0.527,0.184c0.078,0,0.156-0.008,0.223-0.023l-2.197,2.161  L65.682,41.785z M78.361,54.028L78.361,54.028H76.77l-0.109,0.126l-8.082-9.105l2.236-2.21l8.879,9.891l-0.768-0.033  C78.926,52.697,78.721,53.246,78.361,54.028z"/>
<g>
	<defs>
		<rect id="SVGID_1_" x="122" y="140.146" width="99.635" height="125.854"/>
	</defs>
	<clipPath id="SVGID_2_">
		<use xlink:href="#SVGID_1_" overflow="visible"/>
	</clipPath>
</g>
</svg>