<svg xmlns="http://www.w3.org/2000/svg" xmlns:xlink="http://www.w3.org/1999/xlink" version="1.1" x="0px" y="0px" width="100px" height="100px" viewBox="5.0 -10.0 100.0 135.0" enable-background="new 0 0 100 100" xml:space="preserve">
<g id="Background">
</g>
<g id="Pictograms">
	<path fill="#ffffff" d="M86.885,0c-0.453,0-0.82,0.367-0.82,0.82v3.278h-2.459V0.82c0-0.453-0.367-0.82-0.819-0.82c-0.453,0-0.82,0.367-0.82,0.82   v3.278h-2.459V0.82c0-0.453-0.367-0.82-0.82-0.82s-0.82,0.367-0.82,0.82v3.278H75.41V0.82C75.41,0.367,75.043,0,74.59,0   s-0.82,0.367-0.82,0.82v3.278h-2.459V0.82c0-0.453-0.367-0.82-0.82-0.82s-0.819,0.367-0.819,0.82v3.278h-2.459V0.82   c0-0.453-0.367-0.82-0.819-0.82s-0.82,0.367-0.82,0.82v3.278h-2.459V0.82c0-0.453-0.367-0.82-0.82-0.82s-0.819,0.367-0.819,0.82   v3.278h-2.459V0.82c0-0.453-0.367-0.82-0.82-0.82s-0.82,0.367-0.82,0.82v3.278h-2.459V0.82c0-0.453-0.367-0.82-0.82-0.82   s-0.819,0.367-0.819,0.82v3.278H50.82V0.82C50.82,0.367,50.453,0,50,0s-0.82,0.367-0.82,0.82v3.278h-2.459V0.82   c0-0.453-0.367-0.82-0.819-0.82s-0.82,0.367-0.82,0.82v3.278h-2.459V0.82c0-0.453-0.367-0.82-0.82-0.82s-0.82,0.367-0.82,0.82   v3.278h-2.459V0.82c0-0.453-0.367-0.82-0.819-0.82s-0.82,0.367-0.82,0.82v3.278h-2.459V0.82c0-0.453-0.367-0.82-0.82-0.82   s-0.819,0.367-0.819,0.82v3.278h-2.459V0.82c0-0.453-0.367-0.82-0.82-0.82s-0.82,0.367-0.82,0.82v3.278h-2.459V0.82   c0-0.453-0.367-0.82-0.82-0.82S24.59,0.367,24.59,0.82v3.278h-2.459V0.82c0-0.453-0.367-0.82-0.82-0.82s-0.82,0.367-0.82,0.82   v3.278h-2.459V0.82c0-0.453-0.367-0.82-0.82-0.82c-0.453,0-0.819,0.367-0.819,0.82v3.278h-2.459V0.82c0-0.453-0.367-0.82-0.82-0.82   s-0.82,0.367-0.82,0.82v4.098v90.164v4.098c0,0.453,0.367,0.82,0.82,0.82s0.82-0.367,0.82-0.82v-3.278h2.459v3.278   c0,0.453,0.367,0.82,0.819,0.82c0.453,0,0.82-0.367,0.82-0.82v-3.278h2.459v3.278c0,0.453,0.367,0.82,0.82,0.82   s0.82-0.367,0.82-0.82v-3.278h2.459v3.278c0,0.453,0.367,0.82,0.819,0.82s0.82-0.367,0.82-0.82v-3.278h2.459v3.278   c0,0.453,0.367,0.82,0.82,0.82s0.82-0.367,0.82-0.82v-3.278h2.459v3.278c0,0.453,0.367,0.82,0.819,0.82s0.82-0.367,0.82-0.82   v-3.278h2.459v3.278c0,0.453,0.367,0.82,0.82,0.82s0.819-0.367,0.819-0.82v-3.278h2.459v3.278c0,0.453,0.367,0.82,0.82,0.82   s0.82-0.367,0.82-0.82v-3.278h2.459v3.278c0,0.453,0.367,0.82,0.82,0.82s0.819-0.367,0.819-0.82v-3.278h2.459v3.278   c0,0.453,0.367,0.82,0.82,0.82s0.82-0.367,0.82-0.82v-3.278h2.459v3.278c0,0.453,0.367,0.82,0.819,0.82s0.82-0.367,0.82-0.82   v-3.278h2.459v3.278c0,0.453,0.367,0.82,0.82,0.82s0.82-0.367,0.82-0.82v-3.278h2.459v3.278c0,0.453,0.367,0.82,0.819,0.82   s0.82-0.367,0.82-0.82v-3.278h2.459v3.278c0,0.453,0.367,0.82,0.82,0.82s0.819-0.367,0.819-0.82v-3.278h2.459v3.278   c0,0.453,0.367,0.82,0.819,0.82s0.82-0.367,0.82-0.82v-3.278h2.459v3.278c0,0.453,0.367,0.82,0.82,0.82s0.819-0.367,0.819-0.82   v-3.278h2.459v3.278c0,0.453,0.367,0.82,0.82,0.82s0.82-0.367,0.82-0.82v-3.278h2.459v3.278c0,0.453,0.367,0.82,0.82,0.82   c0.453,0,0.819-0.367,0.819-0.82v-3.278h2.459v3.278c0,0.453,0.367,0.82,0.82,0.82s0.82-0.367,0.82-0.82v-4.098V4.918V0.82   C87.705,0.367,87.338,0,86.885,0z M86.065,94.262h-7.038L67.553,82.787l15.813-15.814c0.32-0.32,0.32-0.839,0-1.159L67.553,50   l15.813-15.814c0.32-0.32,0.32-0.839,0-1.159L67.553,17.213L79.028,5.738h7.038V94.262z M54.438,94.262L42.962,82.787   l15.814-15.814c0.32-0.32,0.32-0.839,0-1.159L42.962,50l15.814-15.814c0.32-0.32,0.32-0.839,0-1.159L42.962,17.213L54.438,5.738   H76.71L65.814,16.634c-0.32,0.32-0.32,0.839,0,1.159l15.814,15.814L65.814,49.42c-0.32,0.32-0.32,0.839,0,1.159l15.814,15.814   L65.814,82.208c-0.32,0.32-0.32,0.839,0,1.159L76.71,94.262H54.438z M29.848,94.262L18.372,82.787l15.814-15.814   c0.32-0.32,0.32-0.839,0-1.159L18.372,50l15.814-15.814c0.32-0.32,0.32-0.839,0-1.159L18.372,17.213L29.848,5.738H52.12   L41.224,16.634c-0.32,0.32-0.32,0.839,0,1.159l15.814,15.814L41.224,49.42c-0.32,0.32-0.32,0.839,0,1.159l15.814,15.814   L41.224,82.208c-0.32,0.32-0.32,0.839,0,1.159L52.12,94.262H29.848z M13.935,5.738h13.595L16.634,16.634   c-0.32,0.32-0.32,0.839,0,1.159l15.813,15.814L16.634,49.42c-0.32,0.32-0.32,0.839,0,1.159l15.813,15.814L16.634,82.208   c-0.32,0.32-0.32,0.839,0,1.159l10.896,10.896H13.935V5.738z"/>
</g>
</svg>