<svg xmlns="http://www.w3.org/2000/svg" xmlns:xlink="http://www.w3.org/1999/xlink" version="1.1" id="Layer_1" x="0px" y="0px" width="100px" height="100px" viewBox="5.0 -10.0 100.0 135.0" enable-background="new 0 0 100 100" xml:space="preserve">
<path stroke="#ffffff" fill="#ffffff" d="M9.917,69.589l0.408-7.554c0-0.215-0.044-0.419-0.112-0.611H89.77c-0.072,0.201-0.117,0.416-0.117,0.645l0.406,7.487  c0,1.012,0.824,1.835,1.835,1.835h2.446c1,0,1.815-0.804,1.835-1.799l0.813-7.49l0.003-0.066c0-0.226-0.046-0.439-0.121-0.64  c0.875-0.139,1.548-0.893,1.548-1.807v-6.122c0-0.469-0.182-0.892-0.471-1.217c0.289-0.324,0.471-0.747,0.471-1.216V39.318  c0-1.012-0.822-1.835-1.834-1.835H89.38c-0.216,0-0.42,0.045-0.611,0.113v-7.152c0-1.012-0.824-1.835-1.835-1.835h-35.71  c-0.472,0-0.897,0.184-1.224,0.478c-0.325-0.294-0.751-0.478-1.223-0.478h-35.71c-1.012,0-1.835,0.823-1.835,1.835v7.139  c-0.192-0.068-0.396-0.112-0.611-0.112H3.418c-1.012,0-1.835,0.823-1.835,1.835v11.715c0,0.472,0.184,0.898,0.478,1.224  c-0.294,0.325-0.478,0.752-0.478,1.223v6.122c0,0.906,0.661,1.656,1.525,1.804c-0.075,0.201-0.122,0.416-0.122,0.643l0.815,7.557  c0.02,0.995,0.835,1.799,1.835,1.799h2.446C9.095,71.391,9.918,70.567,9.917,69.589z M94.956,69.49l-0.005,0.065  c0,0.337-0.273,0.611-0.611,0.611h-2.446c-0.337,0-0.611-0.274-0.612-0.645l-0.407-7.487c0-0.337,0.275-0.611,0.612-0.611h3.669  c0.328,0,0.597,0.26,0.611,0.584L94.956,69.49z M89.38,38.707h7.203c0.337,0,0.611,0.274,0.611,0.611v11.716  c0,0.314-0.24,0.572-0.547,0.604c-0.021-0.001-0.043-0.006-0.064-0.006h-7.329c-0.277-0.059-0.485-0.305-0.485-0.599v-0.014v-4.621  v-7.081C88.769,38.981,89.042,38.707,89.38,38.707z M12.456,51.021v-4.621c0-0.337,0.274-0.611,0.611-0.611h35.71  c0.337,0,0.611,0.274,0.611,0.611v4.621c0,0.338-0.274,0.612-0.611,0.612h-35.71C12.73,51.633,12.456,51.358,12.456,51.021z   M50.612,51.021v-4.621c0-0.337,0.274-0.611,0.611-0.611h35.71c0.337,0,0.611,0.274,0.611,0.611v4.621  c0,0.338-0.274,0.612-0.611,0.612h-35.71C50.887,51.633,50.612,51.358,50.612,51.021z M51.224,29.832h35.71  c0.337,0,0.611,0.274,0.611,0.612v8.874v5.359c-0.192-0.068-0.396-0.113-0.611-0.113h-35.71c-0.215,0-0.419,0.045-0.611,0.113  V30.444C50.612,30.106,50.887,29.832,51.224,29.832z M12.456,30.444c0-0.338,0.274-0.612,0.611-0.612h35.71  c0.337,0,0.611,0.274,0.611,0.612v14.233c-0.192-0.068-0.396-0.113-0.611-0.113h-35.71c-0.215,0-0.419,0.045-0.611,0.113v-5.372  V30.444z M2.807,39.306c0-0.338,0.274-0.612,0.611-0.612h7.203c0.337,0,0.611,0.274,0.611,0.612v7.094v4.621  c0,0.338-0.274,0.612-0.611,0.612H3.418c-0.337,0-0.611-0.274-0.611-0.612V39.306z M2.807,59.589v-6.122  c0-0.337,0.274-0.611,0.611-0.611h7.203h2.446h35.71h2.446h35.71h2.316c0.043,0.003,0.085,0.013,0.13,0.013h7.203  c0.021,0,0.043-0.006,0.064-0.006c0.307,0.033,0.547,0.29,0.547,0.604v6.122c0,0.338-0.274,0.612-0.611,0.612h-1.428h-3.669H8.49  H4.821H3.418C3.081,60.201,2.807,59.927,2.807,59.589z M5.025,69.556L4.21,62.008c0.015-0.324,0.283-0.584,0.611-0.584H8.49  c0.338,0,0.612,0.274,0.613,0.579l-0.409,7.553c0,0.337-0.274,0.611-0.611,0.611H5.637C5.3,70.167,5.025,69.893,5.025,69.556z"/>
</svg>