<svg xmlns="http://www.w3.org/2000/svg" xmlns:xlink="http://www.w3.org/1999/xlink" version="1.1" id="Layer_1" x="0px" y="0px" viewBox="5.0 -10.0 100.0 135.0" enable-background="new 0 0 100 100" xml:space="preserve" height="100px" width="100px">
<g id="_x35_YcZit.tif" opacity="0.23">
	
		</g>
<g>
	<path d="M50.1,36.8H55v-8.9h-4.9V36.8z M51.1,28.9H54v6.9h-2.9V28.9z"/>
	<path d="M50.1,52.8H55v-8.9h-4.9V52.8z M51.1,44.9H54v6.9h-2.9V44.9z"/>
	<path d="M72.1,28.9v8.9h4H77h4v-8.9h-4h-0.9H72.1z M76,36.8h-2.9v-6.9H76V36.8z M77.1,29.9H80v6.9h-2.9V29.9z"/>
	<path d="M72.1,45.9v8.9h4H77h4v-8.9h-4h-0.9H72.1z M76,53.8h-2.9v-6.9H76V53.8z M77.1,46.9H80v6.9h-2.9V46.9z"/>
	<path d="M33,28.9h-4h-0.9h-4v8.9h4H29h4V28.9z M28,36.8h-2.9v-6.9H28V36.8z M32,36.8h-2.9v-6.9H32V36.8z"/>
	<path d="M28.1,45.9h-4v8.9h4H29h4v-8.9h-4H28.1z M28,53.8h-2.9v-6.9H28V53.8z M29.1,46.9H32v6.9h-2.9V46.9z"/>
	<path d="M52.6,82.7h4V69.9h0V65h-8.9v3.4v1.5v12.8h4H52.6z M55.6,81.7h-2.9V69.9h2.9V81.7z M48.7,66h6.9v2.4h-3h-0.9h-3V66z    M51.6,81.7h-2.9V69.9h2.9V81.7z"/>
	<path d="M28.9,73.8H32h0.9H36h0.9h4v-8.9h-4H36h-3.1H32h-3.1H28h-4v8.9h4H28.9z M37,65.9h2.9v6.9H37V65.9z M33,65.9h2.9v6.9H33   V65.9z M29,65.9h2.9v6.9H29V65.9z M27.9,72.8H25v-6.9h2.9V72.8z"/>
	<path d="M67.9,73.8H71h0.9H75h0.9h4v-8.9h-4H75h-3.1H71h-3.1H67h-4v8.9h4H67.9z M76,65.9h2.9v6.9H76V65.9z M72,65.9h2.9v6.9H72   V65.9z M68,65.9h2.9v6.9H68V65.9z M66.9,72.8H64v-6.9h2.9V72.8z"/>
	<path d="M44.1,73.8c0.7,0,1.3-0.6,1.3-1.3v-6.3c0-0.7-0.6-1.3-1.3-1.3s-1.3,0.6-1.3,1.3v6.3C42.8,73.2,43.4,73.8,44.1,73.8z    M43.8,66.2c0-0.1,0.1-0.3,0.3-0.3s0.3,0.1,0.3,0.3v6.3c0,0.1-0.1,0.3-0.3,0.3s-0.3-0.1-0.3-0.3V66.2z"/>
	<path d="M59.1,73.8c0.7,0,1.3-0.6,1.3-1.3v-6.3c0-0.7-0.6-1.3-1.3-1.3c-0.7,0-1.3,0.6-1.3,1.3v6.3C57.8,73.2,58.4,73.8,59.1,73.8z    M58.8,66.2c0-0.1,0.1-0.3,0.3-0.3c0.1,0,0.3,0.1,0.3,0.3v6.3c0,0.1-0.1,0.3-0.3,0.3c-0.1,0-0.3-0.1-0.3-0.3V66.2z"/>
	<path d="M93.9,80.4H91h-1.1H89h-1.1H85h-1.2V64.9c2.6-0.5,6.6-1.6,6.5-3c0-0.8-0.9-1.6-6.5-2.3V48.7l0.1,0.3c1.7-0.4,5.8-1.4,5.8-3   c0-0.8-0.7-1.7-5.8-2.5c0,0,0,0-0.1,0V32.7l0.1,0.3c1.7-0.4,5.8-1.4,5.8-3c0-0.8-0.7-1.7-5.8-2.5c0,0,0,0-0.1,0v-4.8   c0-2.5-2-4.5-4.5-4.5H70v-3.2h-3.4v-2.3h-3.8v2h-5.1v-1.8H47.3v1.8h-4.7v-2h-3.8v2.3h-3.4v3.2h-9.5c-2.5,0-4.5,2-4.5,4.5v4.9   C16.7,28.4,16,29.2,16,30c0,1.5,3.5,2.5,5.4,2.9v10.7C16.7,44.4,16,45.2,16,46c0,1.5,3.5,2.5,5.4,2.9v10.7   c-5.7,0.7-6.5,1.5-6.6,2.3c-0.1,1.5,3.9,2.5,6.6,3v15.5h-1h-2.9h-1.1h-0.9h-1.1h-2.9h-2v4.9h2h2.9h1.1h0.9h1.1h2.9h1v0H83h0.8H85   h2.9H89h0.9H91h2.9h2v-4.9H93.9z M83.8,28.5c4.7,0.8,4.8,1.5,4.8,1.5c0,0.4-2.1,1.4-4.8,2V28.5z M83.8,44.5   c4.7,0.8,4.8,1.5,4.8,1.5c0,0.4-2.1,1.4-4.8,2V44.5z M83.8,60.6c5,0.6,5.5,1.3,5.5,1.3c-0.2,0.5-2.7,1.4-5.5,2V60.6z M11.4,84.3h-1   v-2.9h1V84.3z M13.3,84.3h-0.9v-2.9h0.9V84.3z M15.3,84.3h-1v-2.9h1V84.3z M17.4,84.3h-1v-2.9h1V84.3z M19.3,84.3h-0.9v-2.9h0.9   V84.3z M21.3,84.3h-1v-2.9h1V84.3z M21.3,63.9c-2.9-0.6-5.4-1.5-5.6-2c0-0.1,0.5-0.8,5.6-1.4V63.9z M21.3,47.9   C18.8,47.3,17,46.4,17,46c0,0,0.2-0.7,4.4-1.4V47.9z M21.3,31.9C18.8,31.3,17,30.4,17,30c0,0,0.2-0.7,4.4-1.4V31.9z M66.6,15.9H69   v2.2h-2.4V15.9z M63.8,13.6h1.8v1.3v0.5v2.8h-1.8V13.6z M58,15.6h4.7v2.6H58V15.6z M48.3,15.1v-0.5v-0.8h8.5v4.3h-8.5V15.1z    M48.3,19.2h8.5v40.3l-8.5,0V19.2z M42.5,15.6h4.7v2.6h-4.7V15.6z M39.7,15.4v-0.5v-1.3h1.8v4.6h-1.8V15.4z M36.3,15.9h2.4v2.2   h-2.4V15.9z M22.3,22.7c0-1.9,1.6-3.5,3.5-3.5h9.5v8.3c-5.5-1.2-11.2-0.4-13-0.1V22.7z M22.3,28.4c1.6-0.3,7.5-1.2,13,0.1v15   c-5.5-1.2-11.2-0.4-13-0.1V28.4z M22.3,44.4c1.6-0.3,7.5-1.2,13,0.1v15h1V19.2h2.4v40.3h1V19.2h1.8v40.3h1V19.2h4.7v40.3l-24.9,0   V44.4z M82.8,84.3H22.3V60.5l60.5,0V84.3z M82.8,59.5l-24.8,0V19.2h4.7v40.3h1V19.2h1.8v40.3h1V19.2H69v40.3h1V44.6   c5.1-1.2,10.8-0.6,12.9-0.2V59.5z M82.8,43.3c-2.2-0.4-7.7-1-12.9,0.2v-15c5.1-1.2,10.8-0.6,12.9-0.2V43.3z M82.8,27.3   c-2.2-0.4-7.7-1-12.9,0.2v-8.4h9.4c1.9,0,3.5,1.6,3.5,3.5V27.3z M85,84.3h-1v-2.9h1V84.3z M86.9,84.3H86v-2.9h0.9V84.3z M88.9,84.3   h-1v-2.9h1V84.3z M91,84.3h-1v-2.9h1V84.3z M92.9,84.3H92v-2.9h0.9V84.3z M94.9,84.3h-1v-2.9h1V84.3z"/>
</g>
</svg>