<svg xmlns="http://www.w3.org/2000/svg" xmlns:xlink="http://www.w3.org/1999/xlink" version="1.1" id="Layer_1" x="0px" y="0px" width="100px" height="100px" viewBox="5.0 -10.0 100.0 135.0" enable-background="new 0 0 100 100" xml:space="preserve">
<path  d="M70.34,52.027l14.047-2.478c1.749,2.035,4.495,3.122,7.33,2.623c4.274-0.754,7.131-4.831,6.375-9.106  c-0.754-4.275-4.828-7.129-9.104-6.375c-2.836,0.499-5.045,2.461-5.99,4.971L68.95,44.14c-1.668,0.294-3.287,0.041-4.621-0.618  c-0.017-1.638,0.578-3.368,1.791-4.812l9.167-10.927c2.646,0.435,5.449-0.498,7.302-2.703c2.789-3.325,2.354-8.283-0.971-11.073  c-3.326-2.791-8.282-2.356-11.074,0.969c-1.849,2.205-2.28,5.127-1.394,7.658l-9.168,10.928c-1.09,1.297-2.491,2.143-3.938,2.497  c-1.064-1.245-1.722-2.952-1.722-4.837V16.957c2.307-1.37,3.854-3.885,3.854-6.763c0-4.341-3.52-7.86-7.86-7.86  c-4.341,0-7.86,3.52-7.86,7.86c0,2.878,1.547,5.393,3.854,6.763V31.22c0,1.694-0.531,3.245-1.411,4.444  c-1.615-0.269-3.217-1.155-4.428-2.598L31.305,22.14c0.887-2.532,0.456-5.454-1.394-7.659c-2.79-3.325-7.748-3.758-11.074-0.969  c-3.326,2.791-3.759,7.748-0.969,11.073c1.85,2.206,4.652,3.137,7.301,2.702l9.168,10.928c1.089,1.298,1.678,2.827,1.774,4.312  c-1.409,0.832-3.205,1.183-5.061,0.855l-14.047-2.477c-0.948-2.51-3.157-4.471-5.991-4.971c-4.275-0.753-8.352,2.102-9.105,6.376  c-0.753,4.274,2.101,8.352,6.376,9.105c2.833,0.5,5.579-0.588,7.329-2.622l14.047,2.477c1.669,0.295,3.103,1.086,4.131,2.162  c-0.545,1.543-1.696,2.967-3.328,3.909l-12.353,7.132c-2.34-1.313-5.292-1.396-7.784,0.043c-3.759,2.17-5.048,6.978-2.877,10.736  c2.17,3.76,6.978,5.047,10.737,2.876c2.492-1.438,3.896-4.036,3.93-6.72l12.352-7.131c1.467-0.848,3.075-1.163,4.553-1  c0.575,1.533,0.609,3.361-0.036,5.134l-4.878,13.403c-2.637,0.498-4.951,2.332-5.936,5.037c-1.485,4.078,0.618,8.59,4.698,10.072  c4.078,1.485,8.589-0.617,10.074-4.697c0.984-2.703,0.39-5.598-1.31-7.672L46.51,71.15c0.579-1.592,1.609-2.866,2.846-3.692  c1.426,0.808,2.626,2.187,3.271,3.956l4.88,13.402c-1.7,2.076-2.293,4.969-1.312,7.675c1.486,4.079,5.996,6.183,10.076,4.696  c4.078-1.485,6.183-5.994,4.696-10.074c-0.983-2.703-3.298-4.539-5.935-5.034l-4.881-13.405c-0.578-1.591-0.609-3.23-0.191-4.658  c1.609-0.301,3.416-0.015,5.049,0.928l12.352,7.133c0.035,2.684,1.438,5.279,3.932,6.72c3.759,2.171,8.566,0.882,10.737-2.876  c2.171-3.76,0.881-8.568-2.88-10.736c-2.491-1.439-5.442-1.358-7.78-0.045l-12.354-7.133c-1.466-0.846-2.541-2.08-3.142-3.441  C66.916,53.3,68.484,52.354,70.34,52.027z M42.988,51.201c0-3.865,3.146-7.011,7.012-7.011s7.011,3.146,7.011,7.011  c0.001,3.867-3.145,7.011-7.011,7.011S42.988,55.068,42.988,51.201z"/>
<g id="Layer_1_1_">
</g>
</svg>