<svg xmlns="http://www.w3.org/2000/svg" xmlns:xlink="http://www.w3.org/1999/xlink" version="1.1" width="96" height="96" viewBox="4.8 -9.6 96.0 129.6">
<path d="M2 94c-1.104 0-2-0.9-2-2v-88c0-1.104 0.896-2 2-2s2 0.896 2 2v88c0 1.1-0.896 2-2 2z" stroke="#000000" stroke-width='1'/>
	<path d="M94 68h-92c-1.104 0-2-0.9-2-2v-60c0-1.104 0.896-2 2-2h92c1.1 0 2 0.896 2 2v60c0 1.1-0.9 2-2 2zM4 64h88v-56h-88v56z" fill="#000000"/>
	<path d="M26 32h-22c-1.104 0-2-0.896-2-2s0.896-2 2-2h20v-20c0-1.104 0.896-2 2-2s2 0.896 2 2v22c0 1.104-0.896 2-2 2z" fill="#000000"/>
	<path d="M26 66c-1.104 0-2-0.9-2-2v-20h-20c-1.104 0-2-0.896-2-2s0.896-2 2-2h22c1.104 0 2 0.896 2 2v22c0 1.1-0.896 2-2 2z" fill="#000000"/>
	<path d="M92 32h-54c-1.104 0-2-0.896-2-2v-22c0-1.104 0.896-2 2-2s2 0.896 2 2v20h52c1.1 0 2 0.896 2 2s-0.9 2-2 2z" fill="#000000"/>
	<path d="M38 66c-1.104 0-2-0.9-2-2v-22c0-1.104 0.896-2 2-2h54c1.1 0 2 0.896 2 2s-0.9 2-2 2h-52v20c0 1.1-0.896 2-2 2z" fill="#000000"/>
</svg>