<svg xmlns="http://www.w3.org/2000/svg" xmlns:xlink="http://www.w3.org/1999/xlink" version="1.1" id="Layer_1" x="0px" y="0px" width="100px" height="100px" viewBox="5.0 -10.0 100.0 135.0" enable-background="new 0 0 100 100" xml:space="preserve">
<path d="M78.704,70.355c-0.788,0.791-4.449,3.92-9.166,6.902c-0.356-2.273-1.054-6.627-1.577-9.342  c-0.575-2.995-2.084-7.193-2.705-8.854c0.749-0.025,1.318-0.055,1.633-0.082c2.002-0.196,2.246-0.78,2.342-1.905  c0.021-0.248-0.287-0.505-0.807-0.763c0.379-1.35,1.59-5.614,2.32-7.979c0.338-1.082,0.844-3.79,1.451-7.102  c1.055,0.01,1.354-0.696,1.529-1.444c0.039-0.166-0.398-0.433-1.127-0.76c0.907-4.95,6.492-29.606,6.492-29.606  s-4.785,1.466-9.767,2.442c-4.979,0.978-12.009,0.757-12.009,0.757s-8.421,22.853-8.821,24.195  c-0.913-0.108-2.414-0.336-4.068-0.789c-2.686-0.732-12.598-3.468-13.282-3.76c-0.684-0.293-1.807,0.049-1.807,0.049  c-0.098,0.392,0.098,1.075,0.341,1.22c0.047,0.028,0.749,0.229,1.854,0.538c0.186,1.565,0.874,7.44,1.125,10.012  c0.293,2.977,0.097,5.957,0.683,6.982c0.009,0.01,0.015,0.022,0.022,0.035c-2.362-0.052-4.285-0.069-4.856-0.035  c-2.881,0.049-2.441,1.953-1.367,2.636c0.203,0.129,0.92,0.366,1.983,0.665c-0.416,0.65-1.17,1.938-1.836,3.633  c-0.878,2.236-4.082,14.333-4.721,16.759c-1.496-0.165-2.734-0.345-3.629-0.448c-3.272-0.391-3.369,1.316-3.223,1.609  c0.537,0.098,10.693,2.835,20.412,1.221c3.771-0.623,7.084-1.612,9.96-2.75c-0.662,4.184-1.271,8.272-1.508,9.864  c-2.055-0.007-3.605-0.099-4.351-0.082c-2.197,0.05-2.538,2.052-2.295,2.149c0,0,0.732,0.781,1.561,0.831  c16.483,0.968,21.389-1.419,28.519-5.274c7.129-3.859,13.377-10.745,13.332-10.939C81.293,70.748,79.977,69.087,78.704,70.355z   M64.464,64.984c-2.407-0.62-8.983-2.303-13.38-3.42c0.104-1.239,0.115-2.116,0.107-2.635c3.707,0.211,8.918,0.23,12.369,0.174  C63.676,60.309,63.934,62.395,64.464,64.984z M61.913,13.797c1.065-0.006,1.68-0.014,2.69-0.081l-5.691,21.029  c-0.934-0.146-1.555-0.12-1.691,0.063c-0.294,0.391-0.246,1.22,0.196,1.562c0.063,0.052,0.411,0.194,0.95,0.397l-4.381,16.293  c-1.127-0.197-2.289-0.399-3.389-0.588L61.913,13.797z M68.219,40.149L64.882,55.17c-0.657-0.163-1.325-0.316-1.969-0.453  l3.319-15.215C66.926,39.73,67.596,39.948,68.219,40.149z M66.784,36.965l5.142-24.193c0.885-0.171,1.684-0.346,2.377-0.508  l-5.519,25.35C68.134,37.397,67.459,37.177,66.784,36.965z M61.917,54.509c-0.438-0.092-0.853-0.172-1.222-0.241  c0.291-2.091-0.072-4.883-0.01-6.666c0.008-0.181,0.014-0.384,0.022-0.605l2.019-8.68c0.86,0.296,1.764,0.603,2.647,0.899  L61.917,54.509z M57.996,53.773c-0.877-0.156-1.91-0.34-3.006-0.533l4.207-16.165c0.187,0.069,0.389,0.142,0.597,0.216  c-0.196,1.961-0.8,8.002-0.962,10.115C58.708,48.996,58.225,51.71,57.996,53.773z M60.938,41.934  c0.086-1.72,0.166-3.323,0.207-4.165c0.238,0.083,0.484,0.17,0.736,0.255L60.938,41.934z M60.54,35.101  c-0.271-0.075-0.533-0.136-0.781-0.192l5.515-21.24c0.824-0.066,1.76-0.155,2.529-0.249l-5.351,22.225  C61.564,35.386,60.88,35.195,60.54,35.101z M49.465,58.809c-0.187,0.459-0.449,1.17-0.754,2.152  c-0.556-0.141-1.01-0.257-1.329-0.337c-0.093-0.786-0.178-1.51-0.243-2.125c0.454,0.079,0.861,0.146,1.194,0.187  C48.665,58.73,49.049,58.771,49.465,58.809z M47.991,63.57c-0.049,0.188-0.098,0.418-0.154,0.68  c-0.113-0.889-0.226-1.771-0.328-2.615c0.267,0.09,0.575,0.186,0.917,0.288C48.286,62.421,48.142,62.963,47.991,63.57z   M50.189,67.721c0.398-2.027,0.643-3.707,0.793-5.056c2.211,0.619,4.899,1.334,7.363,1.961c-2.388,1.819-5.305,3.858-8.686,5.646  C49.854,69.373,50.032,68.514,50.189,67.721z M65.863,55.426l3.22-15.002c0.534,0.17,1.017,0.318,1.428,0.44  c-1.46,6.643-2.794,12.749-3.282,14.977C66.812,55.697,66.35,55.559,65.863,55.426z M75.141,19.817  c-0.664,2.972-2.401,10.863-4.094,18.591c-0.441-0.165-0.92-0.336-1.423-0.51l5.37-25.803c1.42-0.353,2.242-0.621,2.242-0.621  S76.605,13.274,75.141,19.817z M71.241,12.9l-5.296,23.801c-0.938-0.292-1.853-0.568-2.657-0.806l5.187-22.561  C69.459,13.204,70.385,13.055,71.241,12.9z M52.386,32.318c1.656-6.25,6.2-18.621,6.2-18.621c0.896,0.062,1.786,0.093,2.662,0.101  L49.597,52.3c-1.535-0.262-2.865-0.481-3.703-0.612C47.078,48.433,50.984,37.592,52.386,32.318z M34.562,46.041  c-0.441-1.992-1.445-10.067-1.63-11.576c4.646,1.286,12.863,3.51,15.05,4.101c-1.62,5.518-3.234,11.336-3.679,12.944  c-1.94-0.139-5.681-0.273-9.058-0.359C35.438,50.039,34.982,47.932,34.562,46.041z M44.661,58.031l1.71,8.16  c-1.832-0.655-4.689-1.639-8.489-2.817c-4.727-1.468-7.493-2.086-8.81-2.334c0.265-0.726,0.477-1.308,0.606-1.671  c0.689-1.918,0.92-3.756,0.993-4.578C34.464,55.794,40.462,57.188,44.661,58.031z M38.42,74.361  c-5.42,1.07-10.596,0.902-14.465,0.544c0.778-2.103,3.326-8.98,4.795-12.988c1.198,0.504,4.132,1.685,7.667,2.729  c3.25,0.957,7.816,2.299,10.258,3.013l0.286,1.358c-0.149,0.885-0.302,1.814-0.458,2.772C44.007,72.881,41.309,73.788,38.42,74.361z   M60.148,81.979c-4.875,1.717-9.915,2.177-13.772,2.262c0.454-1.813,1.628-6.577,2.659-11.133c6.232-2.978,9.857-6.414,11.02-7.293  c0.283-0.215,0.465-0.422,0.584-0.612c1.76,0.437,3.233,0.778,4.077,0.944c0.8,3.479,2.497,9.272,3.319,12.035  C65.552,79.657,62.846,81.027,60.148,81.979z"/>
</svg>