<svg xmlns="http://www.w3.org/2000/svg" xmlns:xlink="http://www.w3.org/1999/xlink" version="1.1" id="Livello_1" x="0px" y="0px" width="100px" height="100px" viewBox="0 0 100 100" enable-background="new 0 0 100 100" xml:space="preserve">
<path stroke="#000000" stroke-miterlimit="10" d="M6.688,14.7h18.24c0,0,4.476,0.908,4.476,5.101s-4.476,5.194-4.476,5.194  s-6.1,0.594-6.1,4.788c0,4.193,3.832,5.006,6.1,5.006s1.956-1.94,5.696-1.94c3.741,0,4.705,2.754,4.705,5.242  c0,1.519-0.328,4.36-3.184,4.36c-2.855,0-5.338,2.085-5.338,5.543c0.032,5.695,4.471,5.038,5.038,5.038s4.975-1.251,4.944-4.756  c-0.031-3.505,4.6-2.753,4.6-2.753s4.944-0.25,4.944,3.285s0,5.361,0,7.698c0,2.336,1.837,2.722,4.287,2.722  c2.449,0,4.693-0.608,4.693-3.003c0-1.69-0.031-3.13,0-7.229c0.031-4.099,5.288-3.661,5.288-3.661s4.818-0.125,4.882,3.817  c0.063,3.942-0.377,3.828-0.377,6.413c0,2.586,2.144,3.41,4.6,3.412c2.458,0.002,4.632-1.16,4.632-3.412  c0-2.251-0.031-2.376,0-6.256s5.006-3.755,5.006-3.755s12.021-0.25,14.456-0.25c2.436,0,3.442,0.751,3.442,3.817l-0.591,15.583  l-1.446,16.755c0,0-0.34,3.998-4.677,3.998c-4.338,0-84.883,0.085-82.247,0c2.637-0.085-3.743,0.837-3.743-4.934  c0-5.77-1.567-61.367-1.567-61.367S2.538,14.7,6.688,14.7z"/>
</svg>