<svg xmlns="http://www.w3.org/2000/svg" xmlns:xlink="http://www.w3.org/1999/xlink" version="1.1" id="Layer_1" x="0px" y="0px" width="100px" height="100px" viewBox="5.0 -10.0 100.0 135.0" enable-background="new 0 0 100 100" xml:space="preserve">
<g>
	<path fill="#000000" d="M81.6,0.141h-62.37c-7.311,0-13.26,5.947-13.26,13.259v24.406c0,7.312,5.949,13.26,13.26,13.26h3.27   L11.184,96.604c-0.359,1.3,0.403,2.642,1.7,3c1.296,0.355,2.641-0.405,2.998-1.7l14.259-46.839h40.547l14.259,46.839   c0.356,1.295,1.701,2.056,2.997,1.7c1.298-0.358,2.06-1.7,1.702-3L78.329,51.065H81.6c7.31,0,13.259-5.948,13.259-13.26V13.4   C94.858,6.088,88.909,0.141,81.6,0.141z M89.732,37.806c0,4.493-3.642,8.135-8.133,8.135h-62.37c-4.493,0-8.136-3.643-8.136-8.135   V13.4c0-4.493,3.643-8.135,8.136-8.135H81.6c4.491,0,8.133,3.643,8.133,8.135V37.806z"/>
	<circle fill="#000000" cx="50.414" cy="25.602" r="4.519"/>
</g>
</svg>